<svg width="24" height="24" viewBox="0 0 24 24" fill="none" xmlns="http://www.w3.org/2000/svg">
<mask id="mask0_87_392" style="mask-type:alpha" maskUnits="userSpaceOnUse" x="0" y="0" width="24" height="24">
<rect width="24" height="24" fill="#D9D9D9"/>
</mask>
<g mask="url(#mask0_87_392)">
<path d="M6.88075 8L9.55 13.6155H16.1845C16.3 13.6155 16.4026 13.5866 16.4923 13.5288C16.5821 13.4711 16.659 13.391 16.723 13.2885L19.3385 8.5385C19.4153 8.3975 19.4218 8.2725 19.3578 8.1635C19.2936 8.0545 19.1846 8 19.0308 8H6.88075ZM6.39225 7H19.4115C19.8462 7 20.1731 7.17725 20.3923 7.53175C20.6116 7.88625 20.6232 8.25133 20.427 8.627L17.5693 13.8345C17.4244 14.0782 17.2363 14.2692 17.0048 14.4078C16.7734 14.5463 16.5193 14.6155 16.2423 14.6155H9.1L7.8845 16.8463C7.782 17.0001 7.77883 17.1668 7.875 17.3463C7.97117 17.5258 8.11542 17.6155 8.30775 17.6155H19.1923V18.6155C14.9416 18.6155 12.5584 18.6155 8.30775 18.6155C7.72442 18.6155 7.28917 18.3697 7.002 17.878C6.71483 17.3863 6.70775 16.8924 6.98075 16.3963L8.4845 13.7155L4.80775 6H3V5H5.44225L6.39225 7Z" fill="white"/>
</g>
</svg>
