<svg width="24" height="24" viewBox="0 0 24 24" fill="none" xmlns="http://www.w3.org/2000/svg">
<mask id="mask0_87_388" style="mask-type:alpha" maskUnits="userSpaceOnUse" x="0" y="0" width="24" height="24">
<rect width="24" height="24" fill="#D9D9D9"/>
</mask>
<g mask="url(#mask0_87_388)">
<path d="M12 11.3845C11.175 11.3845 10.4688 11.0908 9.88125 10.5033C9.29375 9.91577 9 9.20952 9 8.38452C9 7.55952 9.29375 6.85327 9.88125 6.26577C10.4688 5.67827 11.175 5.38452 12 5.38452C12.825 5.38452 13.5313 5.67827 14.1188 6.26577C14.7063 6.85327 15 7.55952 15 8.38452C15 9.20952 14.7063 9.91577 14.1188 10.5033C13.5313 11.0908 12.825 11.3845 12 11.3845ZM5 18.6155V16.9693C5 16.5564 5.12017 16.1702 5.3605 15.8105C5.601 15.451 5.92442 15.1719 6.33075 14.973C7.27442 14.5205 8.21867 14.1811 9.1635 13.9548C10.1083 13.7286 11.0538 13.6155 12 13.6155C12.9462 13.6155 13.8917 13.7286 14.8365 13.9548C15.7813 14.1811 16.7256 14.5205 17.6693 14.973C18.0756 15.1719 18.399 15.451 18.6395 15.8105C18.8798 16.1702 19 16.5564 19 16.9693V18.6155H5ZM6 17.6155H18V16.9693C18 16.7474 17.9285 16.5391 17.7855 16.3443C17.6427 16.1494 17.4449 15.9847 17.1923 15.85C16.3693 15.4514 15.5207 15.1459 14.6465 14.9338C13.7723 14.7216 12.8902 14.6155 12 14.6155C11.1098 14.6155 10.2277 14.7216 9.3535 14.9338C8.47933 15.1459 7.63075 15.4514 6.80775 15.85C6.55508 15.9847 6.35733 16.1494 6.2145 16.3443C6.0715 16.5391 6 16.7474 6 16.9693V17.6155ZM12 10.3845C12.55 10.3845 13.0208 10.1887 13.4125 9.79702C13.8042 9.40535 14 8.93452 14 8.38452C14 7.83452 13.8042 7.36369 13.4125 6.97202C13.0208 6.58035 12.55 6.38452 12 6.38452C11.45 6.38452 10.9792 6.58035 10.5875 6.97202C10.1958 7.36369 10 7.83452 10 8.38452C10 8.93452 10.1958 9.40535 10.5875 9.79702C10.9792 10.1887 11.45 10.3845 12 10.3845Z" fill="white"/>
</g>
</svg>
