<svg width="24" height="24" viewBox="0 0 24 24" fill="none" xmlns="http://www.w3.org/2000/svg">
<mask id="mask0_41_59" style="mask-type:alpha" maskUnits="userSpaceOnUse" x="0" y="0" width="24" height="24">
<rect width="24" height="24" fill="#D9D9D9"/>
</mask>
<g mask="url(#mask0_41_59)">
<path d="M19.4845 20.1537L13.223 13.8922C12.723 14.3179 12.148 14.6474 11.498 14.8807C10.848 15.1141 10.1948 15.2307 9.53851 15.2307C7.93684 15.2307 6.58125 14.6763 5.47175 13.5675C4.36242 12.4586 3.80775 11.1039 3.80775 9.50323C3.80775 7.90239 4.36217 6.54648 5.471 5.43548C6.57984 4.32464 7.93459 3.76923 9.53525 3.76923C11.1361 3.76923 12.492 4.32389 13.603 5.43323C14.7138 6.54273 15.2693 7.89831 15.2693 9.49998C15.2693 10.1948 15.1462 10.8672 14.9 11.5172C14.6538 12.1672 14.3308 12.723 13.9308 13.1845L20.1923 19.4462L19.4845 20.1537ZM9.53851 14.2307C10.8653 14.2307 11.9855 13.774 12.899 12.8605C13.8125 11.9471 14.2693 10.827 14.2693 9.49998C14.2693 8.17298 13.8125 7.05281 12.899 6.13948C11.9855 5.22598 10.8653 4.76923 9.53851 4.76923C8.2115 4.76923 7.09134 5.22598 6.178 6.13948C5.2645 7.05281 4.80775 8.17298 4.80775 9.49998C4.80775 10.827 5.2645 11.9471 6.178 12.8605C7.09134 13.774 8.2115 14.2307 9.53851 14.2307Z" fill="white"/>
</g>
</svg>
