<svg width="24" height="27" viewBox="0 0 24 27" fill="none" xmlns="http://www.w3.org/2000/svg">
<path d="M11.6667 26.8111V25.3524H20.9774C21.2392 25.3524 21.4543 25.2683 21.6227 25.1001C21.7909 24.9319 21.875 24.7169 21.875 24.4552V23.3333H17.3877V14.3591H21.875V11.6667C21.875 8.84722 20.8785 6.44097 18.8854 4.44792C16.8924 2.45486 14.4861 1.45833 11.6667 1.45833C8.84722 1.45833 6.44097 2.45486 4.44792 4.44792C2.45486 6.44097 1.45833 8.84722 1.45833 11.6667V14.3591H5.94562V23.3333H2.35594C1.68462 23.3333 1.12413 23.1085 0.674479 22.6589C0.224826 22.2092 0 21.6487 0 20.9774V11.6667C0 10.055 0.304305 8.54195 0.912916 7.1276C1.52153 5.71326 2.35582 4.47599 3.41578 3.41578C4.47599 2.35582 5.71326 1.52153 7.1276 0.912916C8.54195 0.304305 10.055 0 11.6667 0C13.2784 0 14.7914 0.304305 16.2057 0.912916C17.6201 1.52153 18.8573 2.35582 19.9176 3.41578C20.9775 4.47599 21.8118 5.71326 22.4204 7.1276C23.029 8.54195 23.3333 10.055 23.3333 11.6667V24.4552C23.3333 25.1262 23.1085 25.6866 22.6589 26.1363C22.2092 26.5861 21.6487 26.8111 20.9774 26.8111H11.6667ZM2.35594 21.875H4.48729V15.8174H1.45833V20.9774C1.45833 21.2392 1.54243 21.4543 1.71063 21.6227C1.87906 21.7909 2.09417 21.875 2.35594 21.875ZM18.846 21.875H21.875V15.8174H18.846V21.875Z" fill="#1C1B1F"/>
</svg>
